<svg height="260pt" preserveAspectRatio="xMidYMid meet" viewBox="0 0 260 260" width="260pt" xmlns="http://www.w3.org/2000/svg"><path d="m1165 2588c-345-47-615-233-709-487-40-108-50-176-48-316 3-225 79-396 224-498 127-90 279-157 483-212 338-92 371-105 443-173 93-88 111-226 45-339-55-95-174-144-353-145-225-2-346 36-408 129-13 22-18 57-22 173l-5 145-25-1c-35-2-181-13-275-21-44-3-91-7-105-8l-25-1-3-342c-2-320-1-343 15-349 10-3 37-14 60-25 72-31 222-69 358-88 191-28 579-34 700-11 288 55 520 204 624 401 89 169 111 393 56 582-70 240-260 392-623 499-458 133-555 184-596 310-59 184 29 327 231 374 102 24 340 3 416-36 12-6 33-21 45-33 46-41 53-69 53-205v-128l42 3c84 7 174 13 267 20 115 8 118 8 126 17 4 4 7 136 7 294v288l-84 36c-162 70-308 113-474 140-86 14-358 19-440 7z" transform="matrix(.1 0 0 -.1 0 260)"/></svg>