<svg xmlns="http://www.w3.org/2000/svg" xmlns:xlink="http://www.w3.org/1999/xlink" width="444" height="123" viewBox="0 0 444 123"><defs><circle id="b" cx="210.5" cy="48.5" r="48.5"/><filter id="a" width="147.4%" height="147.4%" x="-23.7%" y="-13.4%" filterUnits="objectBoundingBox"><feOffset dy="10" in="SourceAlpha" result="shadowOffsetOuter1"/><feGaussianBlur in="shadowOffsetOuter1" result="shadowBlurOuter1" stdDeviation="6"/><feColorMatrix in="shadowBlurOuter1" values="0 0 0 0 0 0 0 0 0 0 0 0 0 0 0 0 0 0 0.1 0"/></filter><circle id="d" cx="371.5" cy="49.5" r="48.5"/><filter id="c" width="147.4%" height="147.4%" x="-23.7%" y="-13.4%" filterUnits="objectBoundingBox"><feOffset dy="10" in="SourceAlpha" result="shadowOffsetOuter1"/><feGaussianBlur in="shadowOffsetOuter1" result="shadowBlurOuter1" stdDeviation="6"/><feColorMatrix in="shadowBlurOuter1" values="0 0 0 0 0 0 0 0 0 0 0 0 0 0 0 0 0 0 0.1 0"/></filter><circle id="f" cx="48.5" cy="50.5" r="48.5"/><filter id="e" width="147.4%" height="147.4%" x="-23.7%" y="-13.4%" filterUnits="objectBoundingBox"><feOffset dy="10" in="SourceAlpha" result="shadowOffsetOuter1"/><feGaussianBlur in="shadowOffsetOuter1" result="shadowBlurOuter1" stdDeviation="6"/><feColorMatrix in="shadowBlurOuter1" values="0 0 0 0 0 0 0 0 0 0 0 0 0 0 0 0 0 0 0.1 0"/></filter></defs><g fill="none" fill-rule="evenodd" transform="translate(12 2)"><path stroke="#D2D9E8" stroke-dasharray="10 10 10 10" stroke-linecap="square" stroke-width="4" d="M335 49.5H65" opacity=".42"/><use fill="#000" filter="url(#a)" xlink:href="#b"/><use fill="#FD7622" xlink:href="#b"/><use fill="#000" filter="url(#c)" xlink:href="#d"/><use fill="#FFF" xlink:href="#d"/><use fill="#000" filter="url(#e)" xlink:href="#f"/><use fill="#FAC05C" xlink:href="#f"/><path d="M21.673 46.213c-.425-.166-.94-.25-1.542-.25-.603 0-1.086.144-1.449.43-.363.288-.545.639-.545 1.055 0 .416.067.74.2.971.132.232.34.43.624.597.443.24.975.449 1.595.624.62.176 1.081.315 1.383.417.301.101.678.272 1.13.513.452.24.793.5 1.023.777.62.684.93 1.563.93 2.636 0 1.387-.482 2.474-1.448 3.26-.966.787-2.194 1.18-3.682 1.18-2.163 0-3.793-.287-4.892-.86v-3.858l2.393-.194v1.332c0 .814.744 1.221 2.233 1.221s2.233-.564 2.233-1.693c0-.407-.129-.74-.386-.999s-.51-.434-.757-.527a9.953 9.953 0 0 0-.89-.277 77.928 77.928 0 0 1-1.011-.278 9.749 9.749 0 0 1-1.063-.374 8.102 8.102 0 0 1-1.263-.68c-.904-.61-1.356-1.633-1.356-3.066 0-1.434.487-2.54 1.462-3.316.975-.777 2.202-1.166 3.682-1.166s2.947.37 4.4 1.11v3.33l-2.393.194v-1.165c0-.463-.203-.777-.611-.944zm6.513 14.485v-13.43c0-.315-.049-.532-.146-.652-.097-.12-.27-.18-.518-.18l-1.117-.084v-2.247h4.493v1.803c.283-.555.797-1.063 1.542-1.526.744-.462 1.63-.694 2.658-.694 3.208 0 4.812 2.35 4.812 7.048 0 2.498-.523 4.412-1.568 5.744-1.046 1.332-2.464 1.998-4.254 1.998-1.063 0-2.011-.268-2.844-.805v3.83l2.153.11v2.193h-6.86v-2.11l.878-.082c.266-.037.461-.116.585-.236.124-.12.186-.347.186-.68zm8.428-9.684c0-3.09-.895-4.634-2.685-4.634-.745 0-1.378.236-1.901.708-.523.471-.784 1.03-.784 1.678v6.382c.673.463 1.493.694 2.459.694s1.692-.462 2.18-1.387c.487-.925.73-2.072.73-3.441zm9.996-6.91V55.76l1.515.083v2.22h-6.327v-2.109l.877-.083c.514-.056.771-.352.771-.888v-7.714c0-.315-.049-.527-.146-.638-.098-.111-.27-.167-.519-.167l-.93-.055v-2.303h4.759zm-3.908-3.856c0-.592.186-1.087.558-1.485.372-.398.86-.597 1.462-.597.603 0 1.095.2 1.476.597.38.398.571.893.571 1.485 0 .592-.19 1.077-.571 1.456-.381.38-.873.57-1.476.57-.602 0-1.09-.19-1.462-.57-.372-.379-.558-.864-.558-1.456zm8.64 14.706v-8.519h-2.286v-2.33h2.286V43.05c0-1.813.399-3.117 1.196-3.912.745-.759 1.835-1.138 3.27-1.138 1.436 0 2.712.324 3.828.971l-.77 2.22c-.851-.462-1.649-.694-2.393-.694-.745 0-1.259.19-1.542.57-.284.378-.426.956-.426 1.733v1.305h3.935v2.33h-3.935v9.296l2.234.111v2.22h-7.045v-2.109l.877-.083c.266-.037.46-.116.585-.236.124-.12.186-.347.186-.68zm9.836 0v-8.519h-2.286v-2.33h2.286V43.05c0-1.813.4-3.117 1.197-3.912.744-.759 1.834-1.138 3.27-1.138 1.435 0 2.711.324 3.828.971l-.771 2.22c-.85-.462-1.648-.694-2.393-.694-.744 0-1.258.19-1.542.57-.283.378-.425.956-.425 1.733v1.305h3.935v2.33h-3.935v9.296l2.233.111v2.22H59.53v-2.109l.877-.083c.266-.037.461-.116.585-.236.124-.12.186-.347.186-.68zm17.945 2.58v-2.108c-.974 1.443-2.41 2.164-4.306 2.164-2.748 0-4.121-1.6-4.121-4.8v-5.578c0-.5-.222-.758-.665-.777l-.85-.055v-2.275h4.678v7.963c0 .98.133 1.72.4 2.22.265.5.815.75 1.648.75s1.502-.269 2.007-.805c.505-.537.757-1.184.757-1.943v-5.022c0-.315-.048-.532-.146-.652-.097-.12-.27-.18-.518-.18l-.851-.056v-2.275h4.679v13.43c0 2.238-.518 3.875-1.555 4.911C79.243 63.482 77.674 64 75.574 64c-2.1 0-3.735-.305-4.905-.916v-3.857l2.526-.222v1.332c0 .5.221.837.664 1.013.444.176 1.055.264 1.835.264 2.286 0 3.43-1.36 3.43-4.08z" fill="#FFF"/><path d="M217 49.01a14.357 14.357 0 0 1-.922 5.067 14.35 14.35 0 0 1-5.068.923h-.02a14.35 14.35 0 0 1-5.067-.921A14.355 14.355 0 0 1 205 49.01v-.02c.001-1.784.328-3.492.921-5.068a14.363 14.363 0 0 1 5.069-.922h.02c1.784 0 3.493.328 5.068.922.594 1.576.92 3.284.922 5.067v.021zM234.666 45h-14.01l9.907-9.906a24.127 24.127 0 0 0-5.657-5.658L215 39.344v-14.01a24.148 24.148 0 0 0-3.988-.333h-.025c-1.336 0-2.67.112-3.987.334v14.01l-9.906-9.907a24.113 24.113 0 0 0-3.064 2.592l-.004.003a24.121 24.121 0 0 0-2.588 3.062L201.344 45h-14.01S187 47.632 187 48.99v.018c0 1.337.112 2.672.334 3.991h14.01l-9.907 9.906a24.136 24.136 0 0 0 5.657 5.657L207 58.657v14.01c1.316.22 2.649.332 3.983.333h.035a24.173 24.173 0 0 0 3.982-.334v-14.01l9.906 9.907a24.125 24.125 0 0 0 3.064-2.591l.002-.002a24.142 24.142 0 0 0 2.59-3.063L220.658 53h14.01c.22-1.316.332-2.648.333-3.982v-.035a24.173 24.173 0 0 0-.334-3.983z" fill="#FFF" fill-rule="nonzero"/><path fill="#8B8B8B" fill-opacity=".7" d="M382.579 44.623c.733.143 1.221.564 1.466 1.263.244.7.122 1.328-.367 1.885l-17.462 21.187c-.488.557-1.099.764-1.832.621-.628-.122-1.08-.454-1.355-.996-.275-.543-.272-1.113.007-1.71l6.574-14.533-6.346-.817c-.575-.112-1.006-.413-1.291-.903-.285-.49-.345-1.018-.181-1.584l6.176-18.359a1.79 1.79 0 0 1 .858-1.056 1.911 1.911 0 0 1 1.348-.227l7.68 1.077c.628.122 1.077.467 1.347 1.036.27.568.27 1.125.001 1.67l-4.654 9.69 8.03 1.756z"/></g></svg>