<svg xmlns="http://www.w3.org/2000/svg" xmlns:xlink="http://www.w3.org/1999/xlink" width="472" height="395" viewBox="0 0 472 395"><defs><linearGradient id="a" x1="50%" x2="15.108%" y1="0%" y2="116.491%"><stop offset="0%" stop-color="#FFD270"/><stop offset="100%" stop-color="#F5A623"/></linearGradient><rect id="c" width="380" height="220" rx="4"/><filter id="b" width="112.1%" height="120.9%" x="-6.1%" y="-5.9%" filterUnits="objectBoundingBox"><feOffset dy="10" in="SourceAlpha" result="shadowOffsetOuter1"/><feGaussianBlur in="shadowOffsetOuter1" result="shadowBlurOuter1" stdDeviation="6"/><feColorMatrix in="shadowBlurOuter1" values="0 0 0 0 0 0 0 0 0 0 0 0 0 0 0 0 0 0 0.1 0"/></filter></defs><g fill="none" fill-rule="evenodd"><circle cx="197.5" cy="197.5" r="197.5" fill="url(#a)" opacity=".803"/><g transform="translate(80 88)"><use fill="#000" filter="url(#b)" xlink:href="#c"/><use fill="#FFF" xlink:href="#c"/><g transform="translate(20 85)"><rect width="339" height="49" x=".5" y=".5" fill="#FFF" stroke="#DEDEDE" rx="3"/><path fill="#767676" d="M226.971 19.536V31h-1.36v-8.424c0-.112.004-.232.012-.36.008-.128.018-.259.028-.392l-3.936 7.168c-.122.24-.309.36-.56.36h-.224c-.25 0-.437-.12-.56-.36l-4.016-7.2c.032.283.048.544.048.784V31h-1.36V19.536h1.144c.14 0 .246.013.32.04.075.027.147.101.216.224l3.96 7.056c.064.128.127.261.188.4.062.139.12.28.172.424.054-.144.11-.287.168-.428.06-.141.123-.276.192-.404l3.888-7.048c.064-.123.135-.197.212-.224.078-.027.186-.04.324-.04h1.144zm14.88 0V31h-1.36v-8.424c0-.112.003-.232.011-.36.008-.128.018-.259.028-.392l-3.936 7.168c-.122.24-.309.36-.56.36h-.224c-.25 0-.437-.12-.56-.36l-4.016-7.2c.032.283.048.544.048.784V31h-1.36V19.536h1.144c.139 0 .246.013.32.04.075.027.147.101.216.224l3.96 7.056c.064.128.127.261.188.4.062.139.119.28.172.424.054-.144.11-.287.168-.428.059-.141.123-.276.192-.404l3.888-7.048c.064-.123.135-.197.212-.224.078-.027.186-.04.324-.04h1.144zm7.517 11.632a.794.794 0 0 1-.324.416.85.85 0 0 1-.452.136h-.6l4.808-11.976a.804.804 0 0 1 .292-.392.773.773 0 0 1 .452-.136h.608l-4.784 11.952zm14.606-4.736V31h-1.552v-4.568l-4.2-6.896h1.36c.138 0 .248.033.328.1.08.067.149.153.208.26l2.624 4.456c.096.187.184.361.264.524.08.163.149.327.208.492.058-.165.125-.33.2-.492.074-.163.157-.337.248-.524l2.616-4.456a.872.872 0 0 1 .2-.248.48.48 0 0 1 .328-.112h1.368l-4.2 6.896zm10.007 0V31h-1.552v-4.568l-4.2-6.896h1.36c.138 0 .248.033.328.1.08.067.149.153.208.26l2.624 4.456c.096.187.184.361.264.524.08.163.149.327.208.492.058-.165.125-.33.2-.492.074-.163.157-.337.248-.524l2.616-4.456a.872.872 0 0 1 .2-.248.48.48 0 0 1 .328-.112h1.368l-4.2 6.896zm33.11 2.2c.086 0 .16.035.224.104l.616.664a4.905 4.905 0 0 1-1.708 1.272c-.669.304-1.478.456-2.428.456-.82 0-1.568-.143-2.24-.428a4.927 4.927 0 0 1-1.72-1.2 5.424 5.424 0 0 1-1.104-1.852c-.26-.72-.392-1.512-.392-2.376 0-.864.136-1.656.408-2.376a5.438 5.438 0 0 1 1.148-1.856 5.133 5.133 0 0 1 1.772-1.204c.688-.285 1.448-.428 2.28-.428.816 0 1.536.13 2.16.392a5.438 5.438 0 0 1 1.648 1.064l-.512.712a.42.42 0 0 1-.124.132.356.356 0 0 1-.204.052c-.096 0-.213-.052-.352-.156a5.348 5.348 0 0 0-.544-.348 4.224 4.224 0 0 0-.84-.348c-.336-.104-.749-.156-1.24-.156-.592 0-1.133.103-1.624.308-.49.205-.913.503-1.268.892-.354.39-.63.864-.828 1.424-.197.56-.296 1.192-.296 1.896 0 .715.103 1.352.308 1.912.206.56.486 1.033.84 1.42a3.55 3.55 0 0 0 1.256.884 3.998 3.998 0 0 0 1.564.304c.342 0 .65-.02.924-.06.275-.04.528-.103.76-.188a3.2 3.2 0 0 0 .648-.324c.2-.13.4-.287.596-.468.091-.08.182-.12.272-.12zm11.983-9.096L314.402 31h-1.392l-4.672-11.464h1.24c.139 0 .251.035.336.104a.64.64 0 0 1 .192.264l3.232 8.088c.07.181.138.379.204.592.067.213.127.437.18.672.054-.235.11-.459.168-.672.059-.213.123-.41.192-.592l3.224-8.088a.585.585 0 0 1 .188-.252.515.515 0 0 1 .34-.116h1.24zm10.855 0L325.257 31h-1.392l-4.672-11.464h1.24c.139 0 .25.035.336.104a.64.64 0 0 1 .192.264l3.232 8.088c.07.181.137.379.204.592.067.213.127.437.18.672.053-.235.11-.459.168-.672.059-.213.123-.41.192-.592l3.224-8.088a.585.585 0 0 1 .188-.252.515.515 0 0 1 .34-.116h1.24zM49.512 28.632c.085 0 .16.035.224.104l.616.664a4.905 4.905 0 0 1-1.708 1.272c-.67.304-1.479.456-2.428.456-.821 0-1.568-.143-2.24-.428a4.927 4.927 0 0 1-1.72-1.2 5.424 5.424 0 0 1-1.104-1.852c-.261-.72-.392-1.512-.392-2.376 0-.864.136-1.656.408-2.376a5.438 5.438 0 0 1 1.148-1.856 5.133 5.133 0 0 1 1.772-1.204c.688-.285 1.448-.428 2.28-.428.816 0 1.536.13 2.16.392a5.438 5.438 0 0 1 1.648 1.064l-.512.712a.42.42 0 0 1-.124.132.356.356 0 0 1-.204.052c-.096 0-.213-.052-.352-.156a5.348 5.348 0 0 0-.544-.348 4.224 4.224 0 0 0-.84-.348c-.336-.104-.75-.156-1.24-.156-.592 0-1.133.103-1.624.308-.49.205-.913.503-1.268.892-.355.39-.63.864-.828 1.424-.197.56-.296 1.192-.296 1.896 0 .715.103 1.352.308 1.912.205.56.485 1.033.84 1.42a3.55 3.55 0 0 0 1.256.884 3.998 3.998 0 0 0 1.564.304c.341 0 .65-.02.924-.06.275-.04.528-.103.76-.188a3.2 3.2 0 0 0 .648-.324c.2-.13.399-.287.596-.468.09-.08.181-.12.272-.12zm6.719-1.28a11.87 11.87 0 0 0-1.676.156c-.461.083-.837.19-1.128.324-.29.133-.501.29-.632.472-.13.181-.196.384-.196.608 0 .213.035.397.104.552.07.155.164.281.284.38.12.099.261.17.424.216.163.045.337.068.524.068.25 0 .48-.025.688-.076.208-.05.404-.124.588-.22.184-.096.36-.21.528-.344.168-.133.332-.285.492-.456v-1.68zm-4.6-3.312c.448-.432.93-.755 1.448-.968a4.47 4.47 0 0 1 1.72-.32c.453 0 .856.075 1.208.224.352.15.648.357.888.624s.421.59.544.968c.123.379.184.795.184 1.248V31h-.632a.62.62 0 0 1-.32-.068c-.075-.045-.133-.135-.176-.268l-.16-.768a7.94 7.94 0 0 1-.624.524 3.476 3.476 0 0 1-1.356.624 3.918 3.918 0 0 1-.844.084 2.92 2.92 0 0 1-.888-.132 2.051 2.051 0 0 1-.724-.396 1.863 1.863 0 0 1-.488-.668c-.12-.27-.18-.588-.18-.956 0-.32.088-.628.264-.924.176-.296.461-.559.856-.788.395-.23.91-.417 1.544-.564.635-.147 1.413-.23 2.336-.252v-.632c0-.63-.136-1.105-.408-1.428-.272-.323-.67-.484-1.192-.484-.352 0-.647.044-.884.132a3.316 3.316 0 0 0-.616.296c-.173.11-.323.208-.448.296a.646.646 0 0 1-.372.132.409.409 0 0 1-.248-.076.697.697 0 0 1-.176-.188l-.256-.456zm9.535.48c.256-.555.57-.988.944-1.3.373-.312.829-.468 1.368-.468.17 0 .334.019.492.056.157.037.297.096.42.176l-.104 1.064c-.032.133-.112.2-.24.2-.075 0-.184-.016-.328-.048a2.258 2.258 0 0 0-.488-.048c-.256 0-.484.037-.684.112a1.6 1.6 0 0 0-.536.332 2.346 2.346 0 0 0-.424.544 4.663 4.663 0 0 0-.34.74V31h-1.432v-8.104h.816c.154 0 .261.03.32.088.058.059.098.16.12.304l.096 1.232zm9.463.304c-.267-.357-.555-.607-.864-.748a2.474 2.474 0 0 0-1.04-.212c-.752 0-1.331.27-1.736.808-.406.539-.608 1.307-.608 2.304 0 .528.045.98.136 1.356.09.376.224.685.4.928.176.243.392.42.648.532.256.112.546.168.872.168.469 0 .878-.107 1.228-.32.349-.213.67-.515.964-.904v-3.912zm1.424-5.608V31h-.848c-.203 0-.331-.099-.384-.296l-.128-.984a4.412 4.412 0 0 1-1.184 1.008c-.443.256-.955.384-1.536.384-.464 0-.886-.09-1.264-.268a2.621 2.621 0 0 1-.968-.788c-.267-.347-.472-.779-.616-1.296-.144-.517-.216-1.112-.216-1.784 0-.597.08-1.153.24-1.668.16-.515.389-.961.688-1.34a3.193 3.193 0 0 1 1.1-.892 3.254 3.254 0 0 1 1.468-.324c.496 0 .92.084 1.276.252.354.168.67.401.948.7v-4.488h1.424zm16.021.32V31h-.776a.667.667 0 0 1-.308-.064.778.778 0 0 1-.244-.216l-6.632-8.64a10.288 10.288 0 0 1 .032.752V31h-1.36V19.536h.8c.07 0 .128.004.176.012a.45.45 0 0 1 .24.12c.038.035.078.079.12.132l6.632 8.632c-.01-.139-.02-.273-.028-.404a6.1 6.1 0 0 1-.012-.372v-8.12h1.36zm9.135 3.36V31h-.848c-.203 0-.33-.099-.384-.296l-.112-.872c-.352.39-.747.703-1.184.94-.437.237-.939.356-1.504.356-.443 0-.833-.073-1.172-.22a2.324 2.324 0 0 1-.852-.62 2.633 2.633 0 0 1-.516-.968 4.321 4.321 0 0 1-.172-1.256v-5.168h1.424v5.168c0 .613.14 1.088.42 1.424.28.336.708.504 1.284.504.421 0 .815-.1 1.18-.3.365-.2.703-.476 1.012-.828v-5.968h1.424zM99.488 31v-8.104h.856c.203 0 .328.099.376.296l.104.832c.299-.368.635-.67 1.008-.904a2.384 2.384 0 0 1 1.296-.352c.544 0 .985.152 1.324.456.339.304.583.715.732 1.232a2.58 2.58 0 0 1 1.804-1.592c.259-.064.521-.096.788-.096.427 0 .807.068 1.14.204.333.136.616.335.848.596.232.261.41.583.532.964.123.381.184.817.184 1.308V31h-1.432v-5.16c0-.635-.139-1.116-.416-1.444-.277-.328-.677-.492-1.2-.492-.235 0-.457.041-.668.124a1.61 1.61 0 0 0-.936.968c-.093.243-.14.524-.14.844V31h-1.432v-5.16c0-.65-.13-1.136-.392-1.456-.261-.32-.643-.48-1.144-.48-.352 0-.677.095-.976.284-.299.19-.573.447-.824.772V31h-1.432zm14.615-1.952c.261.352.548.6.86.744.312.144.655.216 1.028.216.763 0 1.347-.27 1.752-.808.405-.539.608-1.341.608-2.408 0-.992-.18-1.721-.54-2.188-.36-.467-.873-.7-1.54-.7-.464 0-.868.107-1.212.32a3.57 3.57 0 0 0-.956.904v3.92zm0-4.984c.341-.395.727-.71 1.156-.944.43-.235.924-.352 1.484-.352.475 0 .903.09 1.284.272.381.181.705.444.972.788.267.344.47.761.612 1.252.141.49.212 1.043.212 1.656a6.28 6.28 0 0 1-.24 1.792c-.16.539-.39.999-.692 1.38a3.14 3.14 0 0 1-1.1.888c-.432.21-.917.316-1.456.316-.533 0-.983-.1-1.348-.3a2.948 2.948 0 0 1-.956-.852l-.072.736c-.043.203-.165.304-.368.304h-.92V19.216h1.432v4.848zm12.975 2c0-.33-.047-.633-.14-.908a2.04 2.04 0 0 0-.408-.712 1.82 1.82 0 0 0-.652-.464 2.201 2.201 0 0 0-.872-.164c-.683 0-1.223.199-1.62.596-.398.397-.644.948-.74 1.652h4.432zm1.152 3.8a2.705 2.705 0 0 1-.632.556 3.935 3.935 0 0 1-.788.388 5.302 5.302 0 0 1-1.756.304 4.12 4.12 0 0 1-1.548-.284 3.397 3.397 0 0 1-1.224-.832 3.817 3.817 0 0 1-.804-1.356c-.192-.539-.288-1.157-.288-1.856 0-.565.086-1.093.26-1.584.173-.49.422-.916.748-1.276.325-.36.722-.643 1.192-.848.469-.205.997-.308 1.584-.308.485 0 .934.081 1.348.244.413.163.77.397 1.072.704.301.307.537.685.708 1.136.17.45.256.964.256 1.54 0 .224-.024.373-.072.448-.048.075-.139.112-.272.112h-5.416c.016.512.086.957.212 1.336.125.379.3.695.524.948.224.253.49.443.8.568.309.125.656.188 1.04.188.357 0 .665-.041.924-.124.258-.083.481-.172.668-.268.186-.096.342-.185.468-.268.125-.083.233-.124.324-.124.117 0 .208.045.272.136l.4.52zm3.247-5.344c.256-.555.57-.988.944-1.3.373-.312.829-.468 1.368-.468.17 0 .334.019.492.056.157.037.297.096.42.176l-.104 1.064c-.032.133-.112.2-.24.2-.075 0-.184-.016-.328-.048a2.258 2.258 0 0 0-.488-.048c-.256 0-.484.037-.684.112a1.6 1.6 0 0 0-.536.332 2.346 2.346 0 0 0-.424.544 4.663 4.663 0 0 0-.34.74V31h-1.432v-8.104h.816c.154 0 .26.03.32.088.058.059.098.16.12.304l.096 1.232z"/><g fill="#767676"><path d="M32.997 32.724H13.003A1.986 1.986 0 0 1 11 30.754V18.97A1.986 1.986 0 0 1 13.003 17h19.994A1.986 1.986 0 0 1 35 18.97v11.793a1.986 1.986 0 0 1-2.003 1.961zm-13.721-10.9c0-.38-.29-.686-.646-.686h-4.502c-.356 0-.645.306-.645.687v2.764c0 .38.29.687.645.687h4.502c.356 0 .646-.306.646-.687v-2.764z" opacity=".2"/><path d="M31.69 29.414h-2.483c-.538 0-.828-.248-.828-.828s.29-.827.828-.827h2.483c.538 0 .827.248.827.827 0 .58-.29.828-.827.828zm-4.966 0h-2.483c-.538 0-.827-.248-.827-.828s.29-.827.827-.827h2.483c.538 0 .828.248.828.827 0 .58-.29.828-.828.828zm-4.965 0h-2.483c-.538 0-.828-.248-.828-.828s.29-.827.828-.827h2.483c.538 0 .827.248.827.827 0 .58-.29.828-.827.828zm-4.966 0H14.31c-.538 0-.827-.248-.827-.828s.29-.827.827-.827h2.483c.538 0 .828.248.828.827 0 .58-.29.828-.828.828z" opacity=".3"/></g></g><g stroke="#6FB2FF" transform="translate(20 20)"><rect width="339" height="49" x=".5" y=".5" fill="#FFF" stroke-linejoin="square" rx="3"/><rect width="341" height="51" x="-.5" y="-.5" rx="3"/></g><text fill="#2B2B2B" font-family="Lato-Regular, Lato" font-size="16" letter-spacing=".023" transform="translate(20 20)"><tspan x="10" y="37">jonathandoe@gmail.com</tspan></text><text fill="#767676" font-family="Lato-Regular, Lato" font-size="12" letter-spacing=".023" transform="translate(20 20)"><tspan x="10" y="16">Email</tspan></text><g transform="translate(20 150)"><rect width="340" height="50" fill="#84C424" rx="3"/><text fill="#FFF" font-family="Lato-Semibold, Lato" font-size="16" font-weight="500"><tspan x="112.89" y="32">Complete Order</tspan></text></g></g></g></svg>