<svg height="395" viewBox="0 0 430 395" width="430" xmlns="http://www.w3.org/2000/svg" xmlns:xlink="http://www.w3.org/1999/xlink"><defs><linearGradient id="a" x1="50%" x2="15.108%" y1="0%" y2="116.491%"><stop offset="0" stop-color="#ffd270"/><stop offset="1" stop-color="#f5a623"/></linearGradient><rect id="c" height="66" rx="2" width="389"/><filter id="b" height="169.7%" width="111.8%" x="-5.9%" y="-19.7%"><feOffset dy="10" in="SourceAlpha" result="shadowOffsetOuter1"/><feGaussianBlur in="shadowOffsetOuter1" result="shadowBlurOuter1" stdDeviation="6"/><feColorMatrix in="shadowBlurOuter1" values="0 0 0 0 0 0 0 0 0 0 0 0 0 0 0 0 0 0 0.1 0"/></filter><rect id="e" height="66" rx="2" width="389"/><filter id="d" height="169.7%" width="111.8%" x="-5.9%" y="-19.7%"><feOffset dy="10" in="SourceAlpha" result="shadowOffsetOuter1"/><feGaussianBlur in="shadowOffsetOuter1" result="shadowBlurOuter1" stdDeviation="6"/><feColorMatrix in="shadowBlurOuter1" values="0 0 0 0 0 0 0 0 0 0 0 0 0 0 0 0 0 0 0.1 0"/></filter></defs><g fill="none" fill-rule="evenodd" transform="translate(12)"><circle cx="220.5" cy="197.5" fill="url(#a)" opacity=".803" r="197.5"/><g transform="translate(0 122)"><use fill="#000" filter="url(#b)" xlink:href="#c"/><use fill="#fff" xlink:href="#c"/><rect fill="#919191" height="8" rx="4" width="104" x="20" y="20"/><rect fill="#84c424" height="6" rx="3" width="6" x="129" y="21"/><rect fill="#c2c2c2" height="8" rx="4" width="50" x="20" y="38"/><rect fill="#c2c2c2" height="8" rx="4" width="62" x="110" y="38"/><rect fill="#6fb2ff" height="8" rx="4" width="30" x="75" y="38"/><g fill="#d6d6d6"><rect height="8" rx="4" width="8" x="361" y="29"/><rect height="8" rx="4" width="8" x="348" y="29"/><rect height="8" rx="4" width="8" x="335" y="29"/></g><g transform="translate(0 86)"><use fill="#000" filter="url(#d)" xlink:href="#e"/><use fill="#fff" xlink:href="#e"/><g fill="#d6d6d6"><rect height="8" rx="4" width="8" x="361" y="29"/><rect height="8" rx="4" width="8" x="348" y="29"/><rect height="8" rx="4" width="8" x="335" y="29"/></g><rect fill="#919191" height="8" rx="4" width="70" x="20" y="20"/><rect fill="#f8e71c" height="6" rx="3" width="6" x="95" y="21"/><rect fill="#c2c2c2" height="8" rx="4" width="81" x="20" y="38"/><rect fill="#c2c2c2" height="8" rx="4" width="33" x="141" y="38"/><rect fill="#6fb2ff" height="8" rx="4" width="30" x="106" y="38"/></g></g></g></svg>