<svg height="487" viewBox="0 0 474 487" width="474" xmlns="http://www.w3.org/2000/svg" xmlns:xlink="http://www.w3.org/1999/xlink"><defs><linearGradient id="a" x1="50%" x2="15.108%" y1="0%" y2="116.491%"><stop offset="0" stop-color="#ffd270"/><stop offset="1" stop-color="#f5a623"/></linearGradient><linearGradient id="b" x1="50%" x2="14.363%" y1="0%" y2="118.979%"><stop offset="0" stop-color="#ffd270"/><stop offset=".97909" stop-color="#f5a623"/></linearGradient><rect id="c" height="118" rx="4" width="380"/><filter id="d" height="139%" width="112.1%" x="-6.1%" y="-11%"><feOffset dy="10" in="SourceAlpha" result="shadowOffsetOuter1"/><feGaussianBlur in="shadowOffsetOuter1" result="shadowBlurOuter1" stdDeviation="6"/><feColorMatrix in="shadowBlurOuter1" values="0 0 0 0 0 0 0 0 0 0 0 0 0 0 0 0 0 0 0.1 0"/></filter><linearGradient id="e" x1="0%" y1="100%" y2="100%"><stop offset="0" stop-color="#ff5252"/><stop offset=".17149" stop-color="#ff952c"/><stop offset=".45581" stop-color="#fff900"/><stop offset="1" stop-color="#91f135"/></linearGradient><linearGradient id="f" x1="2.705%" y1="50%" y2="50%"><stop offset="0" stop-color="#ff5352"/><stop offset="1" stop-color="#ffa737"/></linearGradient><linearGradient id="g" x1=".151%" y1="50%" y2="50%"><stop offset="0" stop-color="#ffc816"/><stop offset="1" stop-color="#e1f70f"/></linearGradient><linearGradient id="h" x1="1.538%" y1="50%" y2="50%"><stop offset="0" stop-color="#cdf517"/><stop offset="1" stop-color="#90f135"/></linearGradient></defs><g fill="none" fill-rule="evenodd" transform="translate(12)"><circle cx="267" cy="195" fill="url(#a)" opacity=".803" r="195"/><circle cx="171" cy="367" fill="url(#b)" opacity=".803" r="120"/><g transform="translate(0 209)"><use fill="#000" filter="url(#d)" xlink:href="#c"/><use fill="#fff" xlink:href="#c"/><path d="m0 108h380v6a4 4 0 0 1 -4 4h-372a4 4 0 0 1 -4-4z" fill="url(#e)"/><g transform="translate(30 30)"><g fill-rule="nonzero"><path d="m30 0c-16.569 0-30 13.815-30 30.857a31.37 31.37 0 0 0 4.069 15.514c.584 1.031 1.698 1.629 2.858 1.629h46.146c1.16 0 2.274-.598 2.858-1.629a31.37 31.37 0 0 0 4.069-15.514c0-17.042-13.431-30.857-30-30.857zm23.073 44.571-46.125.073a27.996 27.996 0 0 1 -3.615-13.787c0-15.124 11.963-27.427 26.667-27.427s26.667 12.304 26.667 27.428c0 4.85-1.25 9.616-3.594 13.714zm-23.073-17.141c-2.718 0-5.046 1.677-6.084 4.076l-13.643-2.339c-.889-.158-1.765.476-1.918 1.41-.153.935.463 1.816 1.371 1.973l13.667 2.343c.302 3.497 3.127 6.25 6.607 6.25 3.682 0 6.667-3.069 6.667-6.856 0-3.788-2.985-6.857-6.667-6.857zm0 10.285c-1.84 0-3.333-1.535-3.333-3.428 0-1.894 1.492-3.429 3.333-3.429 1.84 0 3.333 1.535 3.333 3.429 0 1.893-1.492 3.428-3.333 3.428z" fill="url(#f)"/><path d="m31.667 27.474v-17.261c0-.94-.746-1.702-1.667-1.702-.92 0-1.667.761-1.667 1.702v17.261c-2.87.76-5 3.4-5 6.569 0 3.76 2.985 6.808 6.667 6.808s6.667-3.048 6.667-6.808c0-3.17-2.13-5.809-5-6.569zm-1.667 9.973c-1.84 0-3.333-1.525-3.333-3.404 0-1.88 1.492-3.405 3.333-3.405 1.84 0 3.333 1.525 3.333 3.405s-1.492 3.404-3.333 3.404zm0-37.447c-16.569 0-30 13.717-30 30.638a30.976 30.976 0 0 0 4.069 15.405c.584 1.023 1.698 1.617 2.858 1.617h46.146c1.16 0 2.274-.594 2.858-1.617a30.976 30.976 0 0 0 4.069-15.405c0-16.921-13.431-30.638-30-30.638zm23.073 44.255-46.125.073a27.644 27.644 0 0 1 -3.615-13.69c0-15.017 11.963-27.234 26.667-27.234s26.667 12.217 26.667 27.234c0 4.815-1.25 9.548-3.594 13.617z" fill="url(#g)" transform="translate(130)"/><path d="m49.727 28.96-13.643 2.322c-1.038-2.382-3.366-4.048-6.084-4.048-3.682 0-6.667 3.048-6.667 6.809 0 3.76 2.985 6.808 6.667 6.808 3.48 0 6.305-2.734 6.607-6.207l13.667-2.327c.908-.154 1.523-1.03 1.37-1.958-.151-.928-1.028-1.558-1.917-1.4zm-19.727 8.487c-1.84 0-3.333-1.525-3.333-3.404 0-1.88 1.492-3.405 3.333-3.405 1.84 0 3.333 1.525 3.333 3.405s-1.492 3.404-3.333 3.404zm0-37.447c-16.569 0-30 13.717-30 30.638a30.976 30.976 0 0 0 4.069 15.405c.584 1.023 1.698 1.617 2.858 1.617h46.146c1.16 0 2.274-.594 2.858-1.617a30.976 30.976 0 0 0 4.069-15.405c0-16.921-13.431-30.638-30-30.638zm23.073 44.255-46.125.073a27.644 27.644 0 0 1 -3.615-13.69c0-15.017 11.963-27.234 26.667-27.234s26.667 12.217 26.667 27.234c0 4.815-1.25 9.548-3.594 13.617z" fill="url(#h)" transform="translate(260)"/></g><circle cx="86.5" cy="27.5" fill="#ffa238" r="3.5"/><circle cx="103.5" cy="27.5" fill="#fec916" r="3.5"/><circle cx="216.5" cy="27.5" fill="#e1f60f" r="3.5"/><circle cx="233.5" cy="27.5" fill="#ccf518" r="3.5"/></g></g></g></svg>