<svg xmlns="http://www.w3.org/2000/svg"><symbol viewBox="0 0 302 112.4" id="logo--light"><title>logo--light</title><path fill="#fff" d="M30.2 35.7c-1.9-.7-4.3-1.1-7-1.1s-4.9.6-6.6 1.9c-1.6 1.2-2.5 2.8-2.5 4.6 0 1.8.3 3.2.9 4.2.6 1 1.5 1.9 2.8 2.6 2 1 4.4 1.9 7.2 2.7l6.3 1.8c1.4.4 3.1 1.2 5.1 2.2 2 1 3.6 2.2 4.6 3.4 2.8 3 4.2 6.8 4.2 11.4 0 6-2.2 10.7-6.6 14.2-4.4 3.4-9.9 5.1-16.7 5.1-9.5 0-16.9-1.3-21.9-3.8V68.2l11-.9v5.8c0 3.5 3.4 5.3 10.1 5.3 6.7 0 10.1-2.4 10.1-7.3 0-1.8-.6-3.2-1.7-4.3-1.2-1.1-2.3-1.9-3.4-2.3-1.1-.4-2.5-.8-4-1.2-1.6-.4-3.1-.8-4.6-1.2-1.5-.4-3.1-.9-4.8-1.6-1.7-.7-3.6-1.7-5.7-3C2.9 54.9.9 50.4.9 44.2c0-6.2 2.2-11 6.6-14.4 4.4-3.4 10-5.1 16.7-5.1 6.7 0 13.3 1.6 19.9 4.8V44l-11 .9v-5.1c-.1-2-1-3.4-2.9-4.1zM60 98V40.1c0-1.4-.2-2.3-.7-2.8-.4-.5-1.2-.8-2.3-.8l-5-.4v-9.7h20v8.1c1.4-2.4 3.8-4.6 7.1-6.6 3.4-2 7.4-3 12-3 14.5 0 21.7 10.2 21.7 30.5 0 10.8-2.4 19.1-7.1 24.8-4.7 5.8-11.1 8.6-19.2 8.6-4.8 0-12.6-3.5-12.6-3.5v16.1l10 .5v9.5H53v-9.1l3.7-.4c1.1-.2 2-.5 2.5-1s.8-1.5.8-2.9zm38.2-41.5c0-13.4-4-20-12.1-20-3.4 0-6.2 1-8.6 3.1-2.4 2-3.5 4.5-3.5 7.3v27.6c3 2 6.7 3 11.1 3 4.4 0 7.6-2 9.8-6 2.2-4.1 3.3-9 3.3-15zM143 26.4v50.1l7 .4v9.5h-28v-9.1l3.7-.4c2.2-.2 3.3-1.5 3.3-3.8v-33c0-1.4-.2-2.3-.6-2.8-.4-.5-1.2-.7-2.3-.7l-4.1-.2v-10h21zm-15-10.1c-1.7-1.6-2.5-3.7-2.5-6.3 0-2.6.8-4.7 2.5-6.4 1.7-1.7 3.9-2.6 6.6-2.6 2.7 0 4.9.9 6.7 2.6 1.7 1.7 2.6 3.9 2.6 6.4 0 2.6-.9 4.7-2.6 6.3-1.7 1.6-3.9 2.5-6.7 2.5-2.8-.1-5-.9-6.6-2.5zM164 73V36.4h-10v-10h11v-4.6c0-7.8 1.8-13.5 5.3-16.9 3.3-3.3 8.1-4.9 14.5-4.9s12 1.4 16.9 4.2l-3.4 9.6c-3.8-2-7.3-3-10.6-3s-5.6.8-6.8 2.5c-1.3 1.6-1.9 4.1-1.9 7.5v5.6h18v10h-18v40l10 .5v9.5h-32v-9.1l3.7-.4c1.1-.2 2-.5 2.5-1s.8-1.5.8-2.9zm45 0V36.4h-10v-10h10v-4.6c0-7.8 1.8-13.5 5.3-16.9 3.3-3.3 8.1-4.9 14.5-4.9s12 1.4 16.9 4.2l-3.4 9.6c-3.8-2-7.3-3-10.6-3s-5.6.8-6.8 2.5c-1.3 1.6-1.9 4.1-1.9 7.5v5.6h18v10h-18v40l10 .5v9.5h-31v-9.1l3.7-.4c1.1-.2 2-.5 2.5-1s.8-1.5.8-2.9zm81 11.7v-9c-4.4 6.2-10.9 9.4-19.4 9.4-12.4 0-18.6-6.9-18.6-20.7V39.8c0-2.2-1-3.3-3.1-3.4l-3.9-.2v-9.8h21v34.4c0 4.2.6 7.4 1.8 9.6 1.2 2.2 3.7 3.2 7.5 3.2s6.9-1.2 9.2-3.5c2.3-2.3 3.5-5.1 3.5-8.4V40.1c0-1.4-.2-2.3-.7-2.8-.5-.5-1.2-.8-2.4-.8l-3.9-.2v-9.8h21v58.1c0 9.7-2.3 16.8-7 21.2-4.6 4.5-11.7 6.7-21.1 6.7-9.4 0-16.7-1.3-22-4V92l11-.9v5.8c0 2.2 1 3.7 3 4.4 2 .8 4.8 1.1 8.4 1.1 10.5.1 15.7-5.9 15.7-17.7z"/></symbol></svg>
